<svg width="138" height="44" viewBox="0 0 138 44" fill="none" xmlns="http://www.w3.org/2000/svg">
<path d="M62.6682 16.6357C64.0762 16.6357 65.1982 17.0977 66.0342 18.0217C66.8702 18.9457 67.2882 20.2437 67.2882 21.9157V28.9997H64.2082V22.2677C64.2082 21.2997 63.9589 20.5517 63.4602 20.0237C62.9615 19.481 62.2795 19.2097 61.4142 19.2097C60.5342 19.2097 59.8302 19.4957 59.3022 20.0677C58.7742 20.6397 58.5102 21.461 58.5102 22.5317V28.9997H55.4082V12.7197H58.5102V19.2537C58.8329 18.4324 59.3609 17.7944 60.0942 17.3397C60.8422 16.8704 61.7002 16.6357 62.6682 16.6357ZM76.0896 16.6577C77.2776 16.6577 78.3409 16.907 79.2796 17.4057C80.2329 17.9044 80.9809 18.6304 81.5236 19.5837C82.0662 20.5224 82.3376 21.6297 82.3376 22.9057C82.3376 24.1817 82.0662 25.289 81.5236 26.2277C80.9809 27.1664 80.2329 27.8924 79.2796 28.4057C78.3409 28.9044 77.2776 29.1537 76.0896 29.1537C74.9016 29.1537 73.8309 28.9044 72.8776 28.4057C71.9389 27.8924 71.1982 27.1664 70.6556 26.2277C70.1129 25.289 69.8416 24.1817 69.8416 22.9057C69.8416 21.6297 70.1129 20.5224 70.6556 19.5837C71.1982 18.6304 71.9389 17.9044 72.8776 17.4057C73.8309 16.907 74.9016 16.6577 76.0896 16.6577ZM76.0896 19.3417C75.2242 19.3417 74.4909 19.6497 73.8896 20.2657C73.2882 20.867 72.9876 21.747 72.9876 22.9057C72.9876 24.0644 73.2882 24.9517 73.8896 25.5677C74.4909 26.169 75.2242 26.4697 76.0896 26.4697C76.9549 26.4697 77.6882 26.169 78.2896 25.5677C78.8909 24.9517 79.1916 24.0644 79.1916 22.9057C79.1916 21.747 78.8909 20.867 78.2896 20.2657C77.6882 19.6497 76.9549 19.3417 76.0896 19.3417ZM100.48 16.6357C101.961 16.6357 103.127 17.0977 103.978 18.0217C104.843 18.931 105.276 20.229 105.276 21.9157V28.9997H102.196V22.2677C102.196 21.329 101.954 20.6104 101.47 20.1117C101 19.5984 100.348 19.3417 99.5118 19.3417C98.6465 19.3417 97.9572 19.613 97.4438 20.1557C96.9305 20.6984 96.6738 21.4904 96.6738 22.5317V28.9997H93.5938V22.2677C93.5938 21.329 93.3518 20.6104 92.8678 20.1117C92.3985 19.5984 91.7458 19.3417 90.9098 19.3417C90.0445 19.3417 89.3552 19.613 88.8418 20.1557C88.3285 20.6984 88.0718 21.4904 88.0718 22.5317V28.9997H84.9698V16.8117H88.0718V19.1217C88.3945 18.3297 88.9005 17.721 89.5898 17.2957C90.2938 16.8557 91.1078 16.6357 92.0318 16.6357C93.0145 16.6357 93.8652 16.8704 94.5838 17.3397C95.3172 17.809 95.8672 18.4837 96.2338 19.3637C96.6152 18.5277 97.1798 17.8677 97.9278 17.3837C98.6905 16.885 99.5412 16.6357 100.48 16.6357ZM119.903 22.4437C119.903 22.7517 119.866 23.1037 119.793 23.4997H110.861C110.905 24.585 111.198 25.3844 111.741 25.8977C112.284 26.411 112.958 26.6677 113.765 26.6677C114.484 26.6677 115.078 26.4917 115.547 26.1397C116.031 25.7877 116.339 25.311 116.471 24.7097H119.749C119.588 25.5604 119.243 26.323 118.715 26.9977C118.187 27.6724 117.505 28.2004 116.669 28.5817C115.848 28.963 114.931 29.1537 113.919 29.1537C112.731 29.1537 111.675 28.9044 110.751 28.4057C109.827 27.8924 109.108 27.1664 108.595 26.2277C108.082 25.289 107.825 24.1817 107.825 22.9057C107.825 21.6297 108.082 20.5224 108.595 19.5837C109.108 18.6304 109.827 17.9044 110.751 17.4057C111.675 16.907 112.731 16.6577 113.919 16.6577C115.122 16.6577 116.17 16.907 117.065 17.4057C117.974 17.9044 118.671 18.5937 119.155 19.4737C119.654 20.339 119.903 21.329 119.903 22.4437ZM116.779 22.1357C116.823 21.1384 116.559 20.383 115.987 19.8697C115.43 19.3564 114.74 19.0997 113.919 19.0997C113.083 19.0997 112.379 19.3564 111.807 19.8697C111.235 20.383 110.92 21.1384 110.861 22.1357H116.779ZM125.053 26.4037H131.037V28.9997H121.665V26.5357L127.275 19.3857H121.797V16.8117H130.817V19.2537L125.053 26.4037Z" fill="#231111"/>
<path d="M24 0H20C8.9543 0 0 8.9543 0 20V24C0 35.0457 8.9543 44 20 44H24C35.0457 44 44 35.0457 44 24V20C44 8.9543 35.0457 0 24 0Z" fill="#EB6753"/>
<mask id="mask0_7_732" style="mask-type:luminance" maskUnits="userSpaceOnUse" x="10" y="10" width="24" height="24">
<path d="M34 10H10V34H34V10Z" fill="white"/>
</mask>
<g mask="url(#mask0_7_732)">
<path d="M32.7715 22.1168L31.6482 21.1411V30.3498C31.6482 31.8994 30.3875 33.16 28.8381 33.16H25.4622C25.7456 32.8696 26.0459 32.547 26.348 32.1982C26.6128 31.8926 26.8596 31.5885 27.0892 31.2866H28.8379C29.3544 31.2866 29.7747 30.8663 29.7747 30.3498V19.5142L22 12.7625L14.2252 19.5142V30.3498C14.2252 30.8663 14.6454 31.2866 15.1619 31.2866H16.9108C17.1402 31.5883 17.387 31.8926 17.652 32.1982C17.9541 32.5468 18.2544 32.8696 18.5377 33.16H15.1619C13.6125 33.16 12.3518 31.8994 12.3518 30.3498V21.1411L11.2283 22.1168L10 20.7023L22 10.2812L34 20.7023L32.7715 22.1168ZM22 24.2099C21.224 24.2099 20.5948 24.839 20.5948 25.615C20.5948 26.391 21.224 27.0201 22 27.0201C22.776 27.0201 23.4052 26.391 23.4052 25.615C23.4052 24.839 22.776 24.2099 22 24.2099ZM27.3849 25.899C27.3849 27.3862 26.5597 29.0926 24.9321 30.9713C23.7798 32.3013 22.6392 33.2343 22.5912 33.2733L22 33.7547L21.4086 33.2733C21.3606 33.2343 20.22 32.3013 19.0677 30.9713C17.4401 29.0926 16.6149 27.3862 16.6149 25.899V25.6185C16.6149 22.6491 19.0306 20.2334 22 20.2334C24.9692 20.2334 27.3849 22.6491 27.3849 25.6185V25.899ZM25.5116 25.6185C25.5116 23.6822 23.9362 22.1068 22 22.1068C20.0637 22.1068 18.4884 23.6822 18.4884 25.6185V25.8993C18.4884 26.8938 19.197 28.2595 20.4837 29.7446C21.0416 30.3886 21.6006 30.9333 22.0026 31.3032C23.3434 30.0737 25.5114 27.7053 25.5114 25.8993L25.5116 25.6185Z" fill="white"/>
</g>
</svg>
