<svg width="177" height="44" viewBox="0 0 177 44" fill="none" xmlns="http://www.w3.org/2000/svg">
<path d="M39.6654 25.1501C39.6654 23.7143 39.9175 22.4506 40.4233 21.3577C40.929 20.2647 41.5976 19.3425 42.4322 18.5893C43.2668 17.8377 44.2126 17.2677 45.2695 16.881C46.3264 16.4942 47.3959 16.3 48.4779 16.3C49.3704 16.3 50.2692 16.4144 51.1743 16.6414C52.0793 16.87 52.9186 17.2348 53.6953 17.7343C54.4703 18.2354 55.1468 18.8852 55.723 19.6822C56.2992 20.4793 56.7048 21.4485 56.9396 22.5869C56.9866 22.8155 57.0211 23.0817 57.0461 23.3901C57.0696 23.697 57.0806 24.0055 57.0806 24.3124C57.0806 24.6193 57.0681 24.9106 57.0461 25.183C57.0336 25.3239 57.0211 25.4523 57.0101 25.5698C56.9929 25.7389 56.8457 25.8657 56.6703 25.8657H43.8759C43.6739 25.8657 43.5173 26.0348 43.5346 26.2305C43.6129 27.0714 43.8227 27.8559 44.1609 28.5824C44.5492 29.4139 45.0472 30.1263 45.6594 30.7182C46.2701 31.3117 46.9637 31.7783 47.7388 32.1196C48.5139 32.461 49.325 32.6317 50.1721 32.6317C50.6654 32.6317 51.1774 32.5581 51.7051 32.4093C52.2343 32.2621 52.7448 32.0617 53.238 31.8112C53.7313 31.5606 54.1901 31.2647 54.6128 30.9233C54.9385 30.6603 55.2157 30.391 55.4443 30.1138C55.557 29.9776 55.759 29.9478 55.9062 30.048L56.0315 30.1326C56.2006 30.2469 56.2256 30.4786 56.0894 30.6274C55.1546 31.6483 54.0507 32.425 52.7808 32.9574C51.3935 33.5383 49.9717 33.828 48.5155 33.828C47.3881 33.828 46.2889 33.651 45.2194 33.2987C44.1499 32.9464 43.2042 32.4109 42.3821 31.6922C41.5585 30.975 40.9008 30.0684 40.4076 28.9754C39.9112 27.8841 39.6654 26.6079 39.6654 25.1501ZM53.3461 24.8088C53.5246 24.8088 53.6749 24.6757 53.6859 24.505C53.7641 23.398 53.6796 22.4068 53.4322 21.5284C53.1613 20.5716 52.7792 19.7684 52.286 19.1201C51.7928 18.4703 51.2165 17.9755 50.5589 17.6341C49.9012 17.2928 49.2311 17.1221 48.5499 17.1221C47.8672 17.1221 47.2049 17.299 46.5582 17.6514C45.9115 18.0052 45.3478 18.511 44.8655 19.1718C44.3833 19.8326 44.0137 20.6358 43.7554 21.58C43.5189 22.4412 43.4297 23.4121 43.4876 24.4925C43.497 24.6694 43.6457 24.8103 43.8289 24.8103H53.3461V24.8088Z" fill="white"/>
<path d="M59.5875 8.90479H62.3089C62.4921 8.90479 62.6393 9.05354 62.6393 9.23518V33.587C62.6393 33.7702 62.4905 33.9174 62.3089 33.9174H59.5875C59.4043 33.9174 59.2571 33.7686 59.2571 33.587V9.23518C59.2571 9.05354 59.4058 8.90479 59.5875 8.90479Z" fill="white"/>
<path d="M64.7125 25.1501C64.7125 23.7143 64.9646 22.4506 65.4688 21.3577C65.973 20.2647 66.6416 19.3425 67.4762 18.5893C68.3092 17.8377 69.2534 17.2677 70.3104 16.881C71.3657 16.4942 72.4336 16.3 73.5141 16.3C74.405 16.3 75.3038 16.4144 76.2073 16.6414C77.1108 16.87 77.9501 17.2348 78.7236 17.7343C79.4987 18.2354 80.172 18.8852 80.7482 19.6822C81.3229 20.4793 81.7284 21.4485 81.9633 22.5869C82.0103 22.8155 82.0447 23.0817 82.0682 23.3901C82.0917 23.697 82.1026 24.0055 82.1026 24.3124C82.1026 24.6193 82.0901 24.9106 82.0682 25.183C82.0557 25.3239 82.0431 25.4523 82.0322 25.5698C82.015 25.7389 81.8678 25.8657 81.6924 25.8657H68.9152C68.7132 25.8657 68.5566 26.0348 68.5754 26.2305C68.6537 27.0714 68.862 27.8559 69.2018 28.5824C69.5885 29.4139 70.088 30.1263 70.6987 30.7182C71.3094 31.3117 72.0015 31.7783 72.775 32.1196C73.5501 32.461 74.3596 32.6317 75.2036 32.6317C75.6968 32.6317 76.2073 32.5581 76.735 32.4093C77.2627 32.2621 77.7731 32.0617 78.2664 31.8112C78.7596 31.5606 79.2168 31.2647 79.6396 30.9233C79.9653 30.6603 80.2409 30.391 80.4695 30.1138C80.5822 29.9776 80.7827 29.9478 80.9314 30.048L81.0567 30.1326C81.2242 30.2469 81.2508 30.4786 81.1146 30.6274C80.1798 31.6483 79.079 32.425 77.8107 32.9574C76.4249 33.5383 75.0063 33.828 73.5516 33.828C72.4258 33.828 71.3282 33.651 70.2603 33.2987C69.1924 32.9464 68.2482 32.4109 67.4261 31.6922C66.6041 30.975 65.948 30.0684 65.4547 28.9754C64.9584 27.8841 64.7125 26.6079 64.7125 25.1501ZM78.3728 24.8088C78.5513 24.8088 78.7001 24.6757 78.7126 24.505C78.7909 23.398 78.7064 22.4068 78.459 21.5284C78.1896 20.5716 77.8076 19.7684 77.3143 19.1201C76.8211 18.4703 76.2464 17.9755 75.5888 17.6341C74.9311 17.2928 74.2625 17.1221 73.5814 17.1221C72.9003 17.1221 72.2379 17.299 71.5928 17.6514C70.9477 18.0052 70.384 18.511 69.9033 19.1718C69.4225 19.8326 69.053 20.6358 68.7946 21.58C68.5582 22.4412 68.4705 23.4121 68.5269 24.4925C68.5363 24.6694 68.685 24.8103 68.8682 24.8103H78.3728V24.8088Z" fill="white"/>
<path d="M94.1344 15.8258C95.5139 15.8258 96.7478 16.0137 97.8345 16.3895C98.8257 16.7324 99.6947 17.1928 100.443 17.7721C100.57 17.8708 100.755 17.8661 100.875 17.7596C101.39 17.3024 101.838 16.7825 102.219 16.2016C102.573 15.6614 102.859 15.1525 103.08 14.6718C103.158 14.5011 103.367 14.4275 103.539 14.5105C103.843 14.6561 104.132 14.7924 104.411 14.9192C104.414 14.9208 104.419 14.9223 104.422 14.9239C105.033 15.2042 105.163 16.0027 104.669 16.4506C104.369 16.723 104.043 16.9751 103.692 17.2084C103.072 17.6202 102.416 18.0039 101.722 18.3593C101.527 18.4595 101.477 18.7101 101.624 18.8729C102.319 19.6386 102.856 20.4967 103.237 21.4456C103.669 22.5276 103.897 23.633 103.921 24.7604C103.944 25.8878 103.756 26.998 103.36 28.0925C102.963 29.1855 102.361 30.1594 101.553 31.0144C100.747 31.8693 99.7229 32.5583 98.4843 33.0813C97.2442 33.6058 95.7942 33.8673 94.1344 33.8673C91.936 33.8673 90.1118 33.4226 88.6634 32.5348C87.2135 31.647 86.1315 30.5305 85.419 29.1855C84.705 27.842 84.3543 26.3952 84.3668 24.845C84.3777 23.2964 84.752 21.8496 85.4895 20.5045C86.2254 19.161 87.3137 18.0446 88.7511 17.1552C90.1885 16.2689 91.983 15.8258 94.1344 15.8258ZM88.8451 32.2655C88.9124 32.3203 88.9797 32.3751 89.0502 32.4314C89.2068 32.5536 89.2224 32.801 89.0831 32.9435C88.7292 33.3052 88.5053 33.6591 88.4129 34.0051C88.297 34.4373 88.3706 34.8303 88.6321 35.1842C88.8936 35.5365 89.3289 35.8215 89.9364 36.0391C90.544 36.2552 91.3081 36.3632 92.2304 36.3632H99.8341C101.132 36.3632 102.112 36.6701 102.772 37.2855C103.431 37.9009 103.808 38.629 103.902 39.473C103.996 40.3154 103.828 41.1641 103.399 42.019C102.997 42.8207 102.405 43.4659 101.624 43.9575C101.528 44.017 101.409 44.0139 101.315 43.9497C101.176 43.8557 101.129 43.66 101.21 43.505C101.395 43.1543 101.555 42.7894 101.688 42.4105C101.856 41.9329 101.887 41.4882 101.782 41.078C101.677 40.6677 101.389 40.3264 100.918 40.0523C100.446 39.7783 99.6978 39.6421 98.6706 39.6421H91.2235C89.8832 39.6421 88.8466 39.3963 88.1122 38.9077C87.3794 38.4176 86.8972 37.7741 86.667 36.977C86.4149 36.0657 86.4681 35.1779 86.8236 34.312C87.154 33.5072 87.7114 32.8213 88.4959 32.2514C88.6039 32.1762 88.7433 32.1809 88.8451 32.2655ZM94.2738 33.0484C95.5828 33.0484 96.6586 32.6444 97.501 31.8349C98.3434 31.0269 98.9619 30.0185 99.3596 28.8112C99.7573 27.604 99.939 26.2887 99.9029 24.8638C99.8685 23.4404 99.6274 22.1251 99.1842 20.9163C98.7395 19.7091 98.0913 18.7007 97.2379 17.8927C96.3845 17.0847 95.3495 16.6792 94.1344 16.6792C92.9178 16.6792 91.8828 17.0832 91.031 17.8927C90.1776 18.7022 89.5278 19.7091 89.0846 20.9163C88.6399 22.1236 88.4066 23.4404 88.3831 24.8638C88.3596 26.2871 88.5585 27.604 88.9797 28.8112C89.4009 30.0185 90.0492 31.0269 90.926 31.8349C91.8013 32.6428 92.9178 33.0484 94.2738 33.0484Z" fill="white"/>
<path d="M107.505 19.936C107.334 19.8342 107.292 19.6118 107.41 19.4537C108.202 18.3967 109.124 17.6076 110.18 17.0861C111.332 16.5162 112.71 16.2312 114.316 16.2312C116.69 16.2312 118.447 16.7385 119.587 17.7516C120.727 18.7663 121.297 20.5028 121.297 22.9627V32.9511C121.297 33.1343 121.145 33.2815 120.959 33.2815H118.839C118.718 33.2815 118.605 33.2189 118.546 33.1156L118.303 32.7037C118.208 32.5409 117.993 32.4845 117.83 32.5847C117.414 32.84 116.869 33.0952 116.199 33.3504C115.361 33.6699 114.337 33.828 113.126 33.828C112.312 33.828 111.393 33.7262 110.369 33.5211C109.414 33.316 108.617 32.9464 107.978 32.4109C107.338 31.8754 106.855 31.2554 106.53 30.5492C106.204 29.843 106.047 29.1023 106.058 28.3288C106.071 27.5553 106.232 26.8147 106.547 26.1069C106.862 25.4007 107.333 24.7806 107.961 24.2451C108.589 23.7096 109.379 23.3401 110.335 23.1349C111.078 22.9533 111.847 22.8108 112.638 22.7075C113.429 22.6041 114.174 22.4914 114.872 22.3661C115.571 22.2409 116.188 22.0874 116.723 21.9042C117.205 21.7398 117.556 21.5112 117.774 21.2168C117.819 21.1542 117.836 21.0759 117.829 20.9992C117.7 19.759 117.32 18.8133 116.689 18.1619C116.037 17.4901 115.048 17.1535 113.721 17.1535C113.023 17.1535 112.378 17.2396 111.785 17.4103C111.191 17.5809 110.656 17.8143 110.178 18.1102C109.7 18.4061 109.282 18.7365 108.921 19.1014C108.639 19.3864 108.388 19.6776 108.171 19.9767C108.069 20.1176 107.873 20.1552 107.721 20.0659L107.505 19.936ZM117.877 31.2632V22.6558C117.877 22.4053 117.605 22.2456 117.381 22.3646C116.891 22.6245 116.341 22.8468 115.73 23.0316C114.904 23.2821 113.897 23.5671 112.711 23.8865C111.897 24.1152 111.233 24.491 110.721 25.0139C110.209 25.5385 109.843 26.1304 109.622 26.7912C109.401 27.4519 109.32 28.1409 109.378 28.8581C109.436 29.5752 109.622 30.2313 109.937 30.8232C110.252 31.4166 110.682 31.9114 111.229 32.3092C111.775 32.7084 112.433 32.9183 113.202 32.9417C114.086 32.9417 114.924 32.8447 115.715 32.6521C116.465 32.4689 117.151 32.0868 117.775 31.5043C117.841 31.4401 117.877 31.3524 117.877 31.2632Z" fill="white"/>
<path d="M123.985 33.4992V16.9046C123.985 16.7214 124.134 16.5742 124.316 16.5742H126.245C126.384 16.5742 126.51 16.6618 126.557 16.7949L127.026 18.1134C127.105 18.331 127.376 18.4031 127.552 18.2543C127.822 18.0273 128.13 17.8206 128.478 17.6342C128.99 17.3602 129.525 17.1269 130.084 16.9343C130.642 16.7417 131.212 16.5977 131.793 16.5068C132.374 16.416 132.914 16.3706 133.416 16.3706C134.304 16.3706 135.181 16.4959 136.047 16.7464C136.913 16.9969 137.682 17.4181 138.354 18.01C139.025 18.6035 139.55 19.3942 139.926 20.3854C140.301 21.3766 140.444 22.623 140.353 24.1277V33.5008C140.353 33.684 140.204 33.8312 140.023 33.8312H137.268C137.085 33.8312 136.938 33.6824 136.938 33.5008V23.9899C136.96 22.8281 136.841 21.8432 136.579 21.0337C136.318 20.2257 135.975 19.5696 135.554 19.0685C135.133 18.5675 134.66 18.1964 134.135 17.9584C133.618 17.7219 133.102 17.581 132.583 17.5325C132.569 17.5309 132.555 17.5309 132.541 17.5309C132.114 17.5325 131.653 17.5841 131.162 17.6843C130.661 17.7861 130.171 17.9302 129.693 18.1118C129.214 18.295 128.764 18.5221 128.343 18.7945C127.96 19.0435 127.639 19.3191 127.377 19.6244C127.327 19.6839 127.3 19.7606 127.3 19.8389V33.4992C127.3 33.6824 127.152 33.8296 126.97 33.8296H124.317C124.134 33.8296 123.985 33.6824 123.985 33.4992Z" fill="white"/>
<path d="M157.634 17.7813C157.784 17.9035 157.801 18.1258 157.671 18.2683C157.637 18.3059 157.612 18.3325 157.594 18.3497L157.533 18.4108C157.416 18.5283 157.227 18.5423 157.097 18.4374C156.525 17.9786 155.922 17.6138 155.288 17.3414C154.571 17.0344 153.79 16.8794 152.947 16.8794C152.127 16.9029 151.323 17.13 150.539 17.5621C149.753 17.9959 149.047 18.5815 148.42 19.3221C147.794 20.0628 147.293 20.9287 146.917 21.9198C146.541 22.911 146.353 23.9539 146.353 25.0468C146.375 26.1178 146.569 27.1262 146.934 28.0704C147.299 29.0162 147.777 29.8367 148.37 30.5303C148.962 31.2256 149.634 31.7783 150.387 32.187C151.139 32.5972 151.89 32.8024 152.642 32.8024C152.892 32.8024 153.074 32.7914 153.188 32.7679C154.305 32.6082 155.205 32.3013 155.888 31.8456C156.475 31.4542 157.003 31.0392 157.471 30.5977C157.599 30.4755 157.8 30.4724 157.93 30.5945L158.11 30.7652C158.246 30.8936 158.246 31.1081 158.116 31.2412C157.341 32.032 156.411 32.6489 155.326 33.0936C154.129 33.5837 152.916 33.828 151.687 33.828C150.57 33.828 149.482 33.6229 148.423 33.2126C147.365 32.8024 146.424 32.2167 145.605 31.4526C144.784 30.6901 144.124 29.7553 143.623 28.6513C143.121 27.5459 142.871 26.2995 142.871 24.909C142.871 23.5201 143.132 22.2659 143.657 21.1495C144.182 20.033 144.875 19.0873 145.741 18.3137C146.607 17.5402 147.592 16.9468 148.697 16.5365C149.803 16.1263 150.935 15.9211 152.097 15.9211C152.211 15.9211 152.33 15.9211 152.455 15.9211C152.574 15.9211 152.687 15.9321 152.797 15.9525C152.809 15.954 152.82 15.9556 152.833 15.9572C153.896 16.0041 154.823 16.1967 155.617 16.5365C156.312 16.8387 156.985 17.2537 157.634 17.7813Z" fill="white"/>
<path d="M159.395 25.1501C159.395 23.7143 159.647 22.4506 160.153 21.3577C160.659 20.2647 161.327 19.3425 162.162 18.5893C162.997 17.8377 163.942 17.2677 164.999 16.881C166.056 16.4942 167.126 16.3 168.208 16.3C169.1 16.3 169.999 16.4144 170.904 16.6414C171.809 16.87 172.648 17.2348 173.425 17.7343C174.2 18.2354 174.877 18.8852 175.453 19.6822C176.029 20.4793 176.433 21.4485 176.669 22.5869C176.716 22.8155 176.751 23.0817 176.776 23.3901C176.799 23.697 176.81 24.0055 176.81 24.3124C176.81 24.6193 176.798 24.9106 176.776 25.183C176.763 25.3239 176.751 25.4523 176.74 25.5698C176.723 25.7389 176.575 25.8657 176.4 25.8657H163.606C163.404 25.8657 163.247 26.0348 163.264 26.2305C163.343 27.0714 163.552 27.8559 163.891 28.5824C164.279 29.4139 164.777 30.1263 165.389 30.7182C166 31.3117 166.693 31.7783 167.469 32.1196C168.244 32.461 169.055 32.6317 169.902 32.6317C170.395 32.6317 170.907 32.5581 171.435 32.4093C171.964 32.2621 172.475 32.0617 172.968 31.8112C173.461 31.5606 173.92 31.2647 174.343 30.9233C174.668 30.6603 174.945 30.391 175.174 30.1138C175.287 29.9776 175.489 29.9478 175.636 30.048L175.761 30.1326C175.93 30.2469 175.955 30.4786 175.819 30.6274C174.884 31.6483 173.78 32.425 172.511 32.9574C171.123 33.5383 169.701 33.828 168.245 33.828C167.118 33.828 166.019 33.651 164.949 33.2987C163.88 32.9464 162.934 32.4109 162.112 31.6922C161.288 30.975 160.631 30.0684 160.137 28.9754C159.641 27.8841 159.395 26.6079 159.395 25.1501ZM173.074 24.8088C173.253 24.8088 173.403 24.6757 173.414 24.505C173.492 23.398 173.408 22.4068 173.16 21.5284C172.889 20.5716 172.507 19.7684 172.014 19.1201C171.521 18.4703 170.945 17.9755 170.287 17.6341C169.629 17.2928 168.959 17.1221 168.278 17.1221C167.595 17.1221 166.933 17.299 166.286 17.6514C165.64 18.0052 165.076 18.511 164.594 19.1718C164.111 19.8326 163.742 20.6358 163.484 21.58C163.247 22.4412 163.158 23.4121 163.216 24.4925C163.225 24.6694 163.374 24.8103 163.557 24.8103H173.074V24.8088Z" fill="white"/>
<path d="M2.67735 29.3765C2.63977 29.3765 2.60219 29.378 2.56461 29.3796H2.78852C2.75251 29.378 2.71336 29.3765 2.67735 29.3765ZM4.83507 38.0872V37.0772C4.83507 36.4384 4.31834 35.9216 3.67948 35.9216H2.67109L2.65856 35.9091L2.64603 35.9216H0.482056V42.4402H29.8022C30.4411 42.4402 30.9578 41.9235 30.9578 41.2846V39.2412C30.9578 38.6023 30.4411 38.0856 29.8022 38.0856H4.83507V38.0872ZM28.725 33.7326C28.7437 33.7342 28.7625 33.7342 28.7798 33.7342C28.797 33.7342 28.8173 33.7342 28.8361 33.7326H28.725ZM2.62098 33.7326C2.63977 33.7342 2.65856 33.7342 2.67578 33.7342C2.69457 33.7342 2.71336 33.7342 2.73215 33.7326H2.62098Z" fill="white"/>
<path d="M30.9579 15.2683V31.6124C30.9297 32.7696 29.9964 33.7044 28.8377 33.7326H0.511847L0.46957 30.5492C0.461741 29.9057 0.981596 29.378 1.62515 29.378H26.6049V16.308L24.4362 14.1393L15.7302 5.43329L7.02257 14.1393L4.83667 16.3252V27.2187H0.483662V15.3121C0.507149 14.8753 0.65747 14.4713 0.901739 14.1393C0.944017 14.0798 0.989425 14.0234 1.03797 13.9686L1.20394 13.8027L4.83667 10.1699L12.6517 2.35487L14.1142 0.89395C14.1252 0.881424 14.1377 0.870463 14.1518 0.856371L14.2254 0.782776C14.2379 0.77025 14.2489 0.757723 14.263 0.745197C14.6513 0.394451 15.1649 0.179932 15.7286 0.179932C16.2923 0.179932 16.8074 0.394451 17.1942 0.745197C17.2067 0.757723 17.2193 0.768684 17.2318 0.782776L17.3054 0.856371C17.3163 0.868897 17.3289 0.879858 17.3414 0.89395L18.8055 2.35644L26.6033 10.1543L30.2501 13.8027C30.2626 13.8152 30.2752 13.8261 30.2877 13.8402L30.3613 13.9138C30.3738 13.9264 30.3848 13.9373 30.3973 13.9514C30.4505 14.0109 30.5022 14.0751 30.5492 14.1409C30.7825 14.4619 30.9312 14.8486 30.9579 15.2683Z" fill="white"/>
</svg>
