<svg width="154" height="39" viewBox="0 0 154 39" fill="none" xmlns="http://www.w3.org/2000/svg">
<path d="M34.23 21.8026C34.23 20.5494 34.4498 19.4449 34.8916 18.4902C35.3323 17.5355 35.9174 16.7295 36.6468 16.0734C37.3751 15.4172 38.2018 14.9197 39.1248 14.5818C40.0489 14.2438 40.9817 14.0743 41.9265 14.0743C42.7062 14.0743 43.4914 14.1739 44.2821 14.3729C45.0716 14.5719 45.8065 14.8901 46.4834 15.3276C47.1604 15.765 47.7509 16.3326 48.2539 17.0281C48.757 17.7247 49.1102 18.57 49.3158 19.5652C49.3562 19.7642 49.388 19.9982 49.4076 20.2661C49.4273 20.5352 49.4383 20.8031 49.4383 21.0721C49.4383 21.3411 49.4273 21.5948 49.4076 21.8332C49.3967 21.9568 49.3858 22.0694 49.3759 22.1711C49.3606 22.3188 49.2327 22.4303 49.0796 22.4303H37.9066C37.7305 22.4303 37.5927 22.5779 37.6091 22.7485C37.678 23.4834 37.8595 24.168 38.1559 24.8034C38.4949 25.5295 38.9301 26.1517 39.4649 26.669C39.9986 27.1863 40.6044 27.5942 41.2813 27.8927C41.9582 28.1912 42.6669 28.34 43.4061 28.34C43.837 28.34 44.2832 28.2754 44.7458 28.1464C45.2072 28.0174 45.6545 27.8435 46.0854 27.6237C46.5162 27.405 46.9165 27.1458 47.2861 26.8472C47.5704 26.6176 47.8121 26.3814 48.0123 26.1397C48.1107 26.0205 48.2867 25.9943 48.4158 26.0817L48.5251 26.1561C48.6728 26.2556 48.6946 26.4579 48.5754 26.5881C47.7585 27.4793 46.7951 28.1573 45.6851 28.6221C44.4735 29.1295 43.2323 29.3832 41.9604 29.3832C40.9751 29.3832 40.0161 29.229 39.0822 28.9207C38.1482 28.6123 37.3215 28.1453 36.6041 27.5187C35.8856 26.8921 35.3115 26.1014 34.8796 25.1467C34.4454 24.1899 34.23 23.0766 34.23 21.8026ZM46.1772 21.5041C46.3325 21.5041 46.4638 21.3881 46.4747 21.2383C46.5425 20.2716 46.4681 19.4055 46.2527 18.6389C46.0165 17.8034 45.6829 17.1024 45.2521 16.5349C44.8212 15.9673 44.3182 15.5353 43.744 15.2368C43.1688 14.9383 42.5838 14.7895 41.9889 14.7895C41.3929 14.7895 40.8133 14.9437 40.249 15.2521C39.6847 15.5605 39.1915 16.0034 38.7716 16.5797C38.3506 17.1571 38.028 17.8581 37.8016 18.6837C37.596 19.4361 37.5173 20.2836 37.5676 21.2263C37.5763 21.3816 37.7053 21.5041 37.8661 21.5041H46.1772Z" fill="#39383D"/>
<path d="M51.6285 7.61572H54.0049C54.1645 7.61572 54.2936 7.74476 54.2936 7.90443V29.1711C54.2936 29.3308 54.1645 29.4598 54.0049 29.4598H51.6285C51.4689 29.4598 51.3398 29.3308 51.3398 29.1711V7.90443C51.3398 7.74476 51.4689 7.61572 51.6285 7.61572Z" fill="#39383D"/>
<path d="M56.1035 21.8026C56.1035 20.5494 56.3233 19.4449 56.764 18.4902C57.2047 17.5355 57.7887 16.7295 58.5159 16.0734C59.2432 15.4172 60.0688 14.9197 60.9907 14.5818C61.9126 14.2438 62.8454 14.0743 63.788 14.0743C64.5667 14.0743 65.3508 14.1739 66.1403 14.3729C66.9288 14.5719 67.6626 14.8901 68.3384 15.3276C69.0142 15.765 69.6036 16.3326 70.1067 17.0281C70.6086 17.7247 70.9619 18.57 71.1675 19.5652C71.2079 19.7642 71.2385 19.9982 71.2593 20.2661C71.279 20.5352 71.2899 20.8031 71.2899 21.0721C71.2899 21.3411 71.2801 21.5948 71.2593 21.8332C71.2484 21.9568 71.2374 22.0694 71.2276 22.1711C71.2123 22.3188 71.0843 22.4303 70.9312 22.4303H59.7735C59.5975 22.4303 59.4608 22.5779 59.4761 22.7485C59.5439 23.4834 59.7265 24.168 60.0229 24.8034C60.3608 25.5295 60.796 26.1517 61.3297 26.669C61.8623 27.1863 62.467 27.5942 63.1439 27.8927C63.8208 28.1912 64.5273 28.34 65.2655 28.34C65.6963 28.34 66.1414 28.2754 66.6029 28.1464C67.0644 28.0174 67.5095 27.8435 67.9403 27.6237C68.3712 27.405 68.7703 27.1458 69.1389 26.8472C69.4232 26.6176 69.6638 26.3814 69.8639 26.1397C69.9623 26.0205 70.1384 25.9943 70.2674 26.0817L70.3768 26.1561C70.5233 26.2556 70.5463 26.4579 70.4271 26.5881C69.6113 27.4793 68.649 28.1573 67.5412 28.6221C66.3317 29.1295 65.0916 29.3832 63.8208 29.3832C62.8366 29.3832 61.8787 29.229 60.9458 28.9207C60.013 28.6123 59.1885 28.1453 58.4711 27.5187C57.7537 26.8921 57.1796 26.1014 56.7498 25.1467C56.3189 24.1899 56.1035 23.0766 56.1035 21.8026ZM68.0344 21.5041C68.1897 21.5041 68.3209 21.3881 68.3307 21.2383C68.3985 20.2716 68.3242 19.4055 68.1087 18.6389C67.8725 17.8034 67.5401 17.1024 67.1092 16.5349C66.6783 15.9673 66.1764 15.5353 65.6023 15.2368C65.0281 14.9383 64.4442 14.7895 63.8504 14.7895C63.2555 14.7895 62.677 14.9437 62.1138 15.2521C61.5495 15.5605 61.0585 16.0034 60.6386 16.5797C60.2186 17.1571 59.8949 17.8581 59.6696 18.6837C59.4641 19.4361 59.3864 20.2836 59.4367 21.2263C59.4455 21.3816 59.5745 21.5041 59.7342 21.5041H68.0344Z" fill="#39383D"/>
<path d="M81.7982 13.6588C83.0033 13.6588 84.0805 13.8229 85.0297 14.1509C85.8947 14.4506 86.6547 14.853 87.3076 15.3582C87.4191 15.4446 87.5799 15.4403 87.6849 15.3473C88.1354 14.9482 88.5258 14.4943 88.8583 13.9869C89.1667 13.5156 89.4182 13.0705 89.6107 12.6517C89.6796 12.5029 89.8611 12.4384 90.0109 12.5106C90.2755 12.6374 90.5293 12.7566 90.772 12.8671C90.7753 12.8682 90.7786 12.8704 90.7819 12.8715C91.3155 13.1153 91.4293 13.813 90.9973 14.2045C90.7348 14.4418 90.4505 14.6627 90.1443 14.8661C89.603 15.2259 89.03 15.5606 88.4241 15.8711C88.2524 15.9586 88.2098 16.1773 88.3377 16.3195C88.9447 16.9888 89.4138 17.7379 89.7463 18.5668C90.1235 19.5116 90.3226 20.4762 90.3433 21.4615C90.363 22.4468 90.2001 23.4157 89.8534 24.3715C89.5057 25.3261 88.9808 26.1769 88.2754 26.9228C87.5711 27.6686 86.6777 28.2711 85.5951 28.7282C84.5124 29.1853 83.2461 29.415 81.7971 29.415C79.8779 29.415 78.2845 29.0268 77.0182 28.2514C75.7518 27.475 74.807 26.5006 74.1848 25.3272C73.5614 24.1538 73.2552 22.8908 73.2662 21.5369C73.276 20.1842 73.603 18.9211 74.246 17.7466C74.889 16.5732 75.8382 15.5977 77.0947 14.8224C78.3523 14.0471 79.9194 13.6588 81.7982 13.6588ZM77.179 28.0163C77.2369 28.0644 77.2971 28.1126 77.3583 28.1607C77.495 28.2678 77.5092 28.4833 77.3867 28.6079C77.0772 28.924 76.8826 29.2324 76.8017 29.5353C76.7011 29.9126 76.7645 30.256 76.9941 30.5643C77.2227 30.8727 77.6022 31.121 78.1325 31.3102C78.6629 31.4993 79.33 31.5934 80.136 31.5934H86.7761C87.9102 31.5934 88.7653 31.8624 89.3416 32.3994C89.918 32.9363 90.2471 33.5728 90.3291 34.3087C90.4112 35.0447 90.2646 35.7861 89.8906 36.532C89.5385 37.2318 89.0212 37.7961 88.3399 38.2248C88.2568 38.2773 88.1529 38.274 88.0709 38.2182C87.9495 38.1373 87.908 37.9645 87.979 37.83C88.1409 37.5238 88.2798 37.2056 88.3957 36.8742C88.5422 36.4565 88.5696 36.0683 88.4777 35.7107C88.3859 35.3531 88.1343 35.0545 87.7232 34.8151C87.312 34.5767 86.6569 34.4575 85.7613 34.4575H79.2589C78.0877 34.4575 77.1822 34.2431 76.5425 33.8155C75.9017 33.3879 75.4817 32.8258 75.2805 32.1292C75.0607 31.3331 75.1066 30.5578 75.4172 29.8021C75.7059 29.099 76.1925 28.4997 76.8771 28.0032C76.969 27.9376 77.0915 27.9431 77.179 28.0163ZM81.9207 28.6998C83.0635 28.6998 84.0039 28.3466 84.7388 27.6401C85.4737 26.9337 86.015 26.0534 86.3617 24.9992C86.7083 23.945 86.8669 22.7956 86.8363 21.5522C86.8057 20.3088 86.5957 19.1606 86.2086 18.1053C85.8203 17.0511 85.2539 16.1708 84.5092 15.4643C83.7633 14.7579 82.86 14.4046 81.7982 14.4046C80.7363 14.4046 79.8319 14.7579 79.0872 15.4643C78.3414 16.1708 77.7749 17.0511 77.3867 18.1053C76.9985 19.1595 76.794 20.3088 76.7743 21.5522C76.7536 22.7956 76.9274 23.945 77.2949 24.9992C77.6623 26.0534 78.2288 26.9348 78.9943 27.6401C79.7609 28.3466 80.7363 28.6998 81.9207 28.6998Z" fill="#39383D"/>
<path d="M93.4752 17.2489C93.3265 17.1604 93.2893 16.9657 93.3921 16.8279C94.0833 15.9049 94.8903 15.216 95.8111 14.76C96.8172 14.2624 98.0212 14.0142 99.4243 14.0142C101.498 14.0142 103.032 14.4571 104.027 15.3418C105.022 16.2275 105.521 17.7443 105.521 19.8932V28.6166C105.521 28.7763 105.389 28.9053 105.226 28.9053H103.374C103.268 28.9053 103.171 28.8506 103.118 28.761L102.906 28.4012C102.823 28.259 102.635 28.2098 102.494 28.2973C102.13 28.5204 101.655 28.7435 101.07 28.9655C100.338 29.2432 99.444 29.3832 98.3876 29.3832C97.6756 29.3832 96.873 29.2935 95.9795 29.1142C95.1462 28.9348 94.4496 28.6122 93.8908 28.1442C93.332 27.6772 92.9099 27.1348 92.6255 26.518C92.3412 25.9013 92.2045 25.255 92.2144 24.5781C92.2253 23.9022 92.3664 23.2548 92.6409 22.6381C92.9153 22.0213 93.3265 21.4789 93.8755 21.0119C94.4245 20.545 95.1145 20.2213 95.9489 20.0419C96.5985 19.8834 97.2699 19.7587 97.9611 19.669C98.6522 19.5793 99.3029 19.4798 99.912 19.3705C100.522 19.2611 101.06 19.1266 101.528 18.968C101.949 18.8248 102.256 18.6247 102.446 18.3677C102.486 18.3141 102.5 18.2441 102.494 18.1774C102.381 17.0947 102.049 16.2691 101.498 15.6994C100.928 15.1132 100.065 14.819 98.9059 14.819C98.2968 14.819 97.7325 14.8934 97.2142 15.0432C96.6958 15.193 96.2278 15.3964 95.8122 15.6545C95.3956 15.9137 95.0292 16.2024 94.7143 16.5195C94.4682 16.7689 94.2495 17.0237 94.0592 17.2839C93.9695 17.4064 93.7989 17.4403 93.6677 17.3616L93.4752 17.2489ZM102.533 27.1414V19.6253C102.533 19.4066 102.296 19.2666 102.099 19.3705C101.672 19.5968 101.191 19.7915 100.658 19.9533C99.9361 20.1721 99.0568 20.4214 98.0212 20.6992C97.3093 20.8982 96.7308 21.2263 96.2835 21.6845C95.8363 22.1427 95.5159 22.6599 95.3234 23.2362C95.1298 23.8136 95.0587 24.4151 95.1101 25.0417C95.1604 25.6683 95.3234 26.2403 95.5979 26.7575C95.8724 27.2748 96.2485 27.7079 96.7253 28.0556C97.2021 28.4045 97.7774 28.5882 98.4477 28.6079C99.2198 28.6079 99.9514 28.5237 100.643 28.3542C101.296 28.1945 101.897 27.8599 102.443 27.3513C102.502 27.2956 102.533 27.219 102.533 27.1414Z" fill="#39383D"/>
<path d="M107.868 29.0935V14.6015C107.868 14.4418 107.997 14.3128 108.156 14.3128H109.842C109.964 14.3128 110.073 14.3893 110.114 14.5052L110.524 15.6568C110.592 15.8471 110.828 15.9105 110.983 15.7793C111.218 15.5802 111.488 15.3998 111.793 15.2379C112.24 14.9995 112.708 14.795 113.194 14.6266C113.682 14.4582 114.18 14.3336 114.687 14.2537C115.195 14.175 115.667 14.1345 116.104 14.1345C116.881 14.1345 117.646 14.2439 118.402 14.4626C119.158 14.6813 119.829 15.0498 120.416 15.5671C121.003 16.0844 121.461 16.7755 121.789 17.6416C122.117 18.5066 122.242 19.5958 122.162 20.9092V29.0957C122.162 29.2553 122.033 29.3844 121.873 29.3844H119.467C119.308 29.3844 119.178 29.2553 119.178 29.0957V20.79C119.198 19.7752 119.093 18.9145 118.865 18.2092C118.636 17.5027 118.338 16.9308 117.969 16.4934C117.6 16.0559 117.188 15.7322 116.731 15.5234C116.279 15.3178 115.828 15.1942 115.376 15.1515C115.364 15.1504 115.352 15.1494 115.34 15.1504C114.967 15.1515 114.565 15.1964 114.135 15.285C113.697 15.3746 113.27 15.4993 112.852 15.6579C112.434 15.8175 112.041 16.0166 111.673 16.255C111.339 16.4715 111.058 16.7132 110.83 16.98C110.786 17.0314 110.763 17.0981 110.763 17.167V29.0968C110.763 29.2564 110.634 29.3855 110.475 29.3855H108.159C107.997 29.3822 107.868 29.2531 107.868 29.0935Z" fill="#39383D"/>
<path d="M137.252 15.368C137.382 15.4741 137.398 15.6687 137.285 15.7934C137.255 15.8262 137.233 15.8492 137.218 15.8645L137.165 15.917C137.063 16.0197 136.898 16.0318 136.784 15.941C136.284 15.5408 135.758 15.2214 135.205 14.9841C134.578 14.7151 133.897 14.5817 133.161 14.5817C132.445 14.6014 131.744 14.8004 131.057 15.1788C130.37 15.5572 129.753 16.069 129.206 16.7153C128.66 17.3616 128.221 18.1183 127.893 18.9833C127.565 19.8483 127.401 20.7593 127.401 21.714C127.421 22.649 127.59 23.5293 127.908 24.3549C128.227 25.1806 128.644 25.8969 129.162 26.5038C129.679 27.1107 130.266 27.593 130.922 27.9506C131.578 28.3093 132.236 28.4875 132.892 28.4875C133.11 28.4875 133.269 28.4777 133.37 28.458C134.344 28.3191 135.13 28.0501 135.727 27.6521C136.239 27.3109 136.701 26.9478 137.11 26.5618C137.222 26.4557 137.397 26.4524 137.51 26.5596L137.666 26.7083C137.784 26.8209 137.786 27.0079 137.672 27.1239C136.995 27.815 136.182 28.3541 135.235 28.7413C134.191 29.1688 133.131 29.3832 132.057 29.3832C131.082 29.3832 130.133 29.2038 129.208 28.8462C128.282 28.4886 127.462 27.9758 126.746 27.3098C126.03 26.6438 125.452 25.828 125.015 24.8624C124.577 23.8978 124.359 22.8086 124.359 21.5948C124.359 20.382 124.587 19.2873 125.045 18.3119C125.503 17.3375 126.109 16.5119 126.866 15.8349C127.622 15.1591 128.483 14.6408 129.448 14.2832C130.413 13.9256 131.402 13.7462 132.417 13.7462C132.517 13.7462 132.621 13.7462 132.73 13.7462C132.834 13.7462 132.933 13.755 133.027 13.7736C133.037 13.7757 133.048 13.7768 133.059 13.7768C133.988 13.8184 134.798 13.9868 135.49 14.2832C136.098 14.5445 136.686 14.9065 137.252 15.368Z" fill="#39383D"/>
<path d="M138.791 21.8026C138.791 20.5494 139.01 19.4449 139.452 18.4902C139.893 17.5355 140.478 16.7295 141.207 16.0734C141.936 15.4172 142.762 14.9197 143.685 14.5818C144.609 14.2438 145.542 14.0743 146.487 14.0743C147.267 14.0743 148.052 14.1739 148.843 14.3729C149.632 14.5719 150.366 14.8901 151.044 15.3276C151.721 15.765 152.311 16.3326 152.814 17.0281C153.318 17.7247 153.671 18.57 153.876 19.5652C153.917 19.7642 153.949 19.9982 153.969 20.2661C153.99 20.5352 154 20.8031 154 21.0721C154 21.3411 153.989 21.5948 153.969 21.8332C153.958 21.9568 153.947 22.0694 153.938 22.1711C153.922 22.3188 153.794 22.4303 153.641 22.4303H142.468C142.292 22.4303 142.154 22.5779 142.171 22.7485C142.24 23.4834 142.421 24.168 142.718 24.8034C143.057 25.5295 143.492 26.1517 144.025 26.669C144.559 27.1863 145.165 27.5942 145.842 27.8927C146.519 28.1912 147.227 28.34 147.967 28.34C148.398 28.34 148.844 28.2754 149.306 28.1464C149.768 28.0174 150.215 27.8435 150.646 27.6237C151.077 27.405 151.477 27.1458 151.847 26.8472C152.131 26.6176 152.373 26.3814 152.573 26.1397C152.671 26.0205 152.847 25.9943 152.976 26.0817L153.086 26.1561C153.233 26.2556 153.255 26.4579 153.136 26.5881C152.319 27.4793 151.356 28.1573 150.246 28.6221C149.034 29.1295 147.793 29.3832 146.52 29.3832C145.535 29.3832 144.576 29.229 143.642 28.9207C142.708 28.6123 141.881 28.1453 141.164 27.5187C140.445 26.8921 139.871 26.1014 139.439 25.1467C139.006 24.1899 138.791 23.0766 138.791 21.8026ZM150.738 21.5041C150.893 21.5041 151.024 21.3881 151.035 21.2383C151.103 20.2716 151.029 19.4055 150.813 18.6389C150.577 17.8034 150.243 17.1024 149.813 16.5349C149.382 15.9673 148.879 15.5353 148.305 15.2368C147.729 14.9383 147.144 14.7895 146.549 14.7895C145.953 14.7895 145.374 14.9437 144.81 15.2521C144.245 15.5605 143.752 16.0034 143.332 16.5797C142.911 17.1571 142.588 17.8581 142.362 18.6837C142.157 19.4361 142.078 20.2836 142.128 21.2263C142.137 21.3816 142.266 21.5041 142.427 21.5041H150.738Z" fill="#39383D"/>
<path d="M143.698 36.872C143.633 36.8075 143.601 36.7288 143.601 36.6358C143.601 36.5254 143.636 36.4346 143.707 36.3635C143.778 36.2924 143.866 36.2574 143.97 36.2574C144.063 36.2574 144.142 36.2892 144.204 36.3537C144.266 36.4182 144.297 36.498 144.297 36.5954C144.297 36.7025 144.261 36.7922 144.191 36.8622C144.12 36.9333 144.034 36.9683 143.934 36.9683C143.841 36.9683 143.762 36.9366 143.698 36.872Z" fill="#1955C9"/>
<path d="M145.746 36.7867C145.49 36.6587 145.294 36.4794 145.16 36.2497C145.025 36.019 144.957 35.7521 144.957 35.4481C144.957 35.0435 145.049 34.675 145.233 34.3425C145.417 34.0101 145.675 33.7476 146.009 33.553C146.343 33.3594 146.728 33.2621 147.164 33.2621C147.521 33.2621 147.828 33.3266 148.086 33.4546C148.344 33.5825 148.54 33.7618 148.675 33.9915C148.81 34.2211 148.878 34.4891 148.878 34.7931C148.878 35.1977 148.786 35.5662 148.602 35.8987C148.418 36.2311 148.159 36.4936 147.824 36.6871C147.488 36.8807 147.102 36.978 146.665 36.978C146.308 36.9791 146.002 36.9146 145.746 36.7867ZM147.573 36.288C147.822 36.136 148.014 35.9304 148.149 35.6723C148.284 35.4142 148.352 35.1321 148.352 34.8237C148.352 34.488 148.246 34.2201 148.032 34.0221C147.819 33.8231 147.516 33.7236 147.121 33.7236C146.797 33.7236 146.509 33.8001 146.26 33.9521C146.01 34.1041 145.818 34.3108 145.681 34.57C145.545 34.8292 145.477 35.1113 145.477 35.4164C145.477 35.7521 145.584 36.0201 145.798 36.218C146.013 36.417 146.318 36.5165 146.712 36.5165C147.036 36.5165 147.324 36.4411 147.573 36.288Z" fill="#1955C9"/>
<path d="M151.895 34.3984C152.07 34.5581 152.158 34.7823 152.158 35.0732C152.158 35.1738 152.148 35.2809 152.127 35.3947L151.821 36.9366H151.322L151.628 35.3947C151.646 35.3017 151.654 35.2252 151.654 35.1661C151.654 34.9857 151.601 34.8479 151.494 34.7506C151.387 34.6532 151.227 34.6051 151.016 34.6051C150.746 34.6051 150.524 34.6784 150.349 34.826C150.174 34.9725 150.057 35.1924 149.999 35.4821L149.708 36.9355H149.209L149.755 34.1841H150.233L150.165 34.5373C150.414 34.2847 150.747 34.1578 151.162 34.1578C151.475 34.16 151.72 34.2399 151.895 34.3984Z" fill="#1955C9"/>
<path d="M120.854 33.3037H121.238V36.9376H120.854V33.3037Z" fill="#39383D"/>
<path d="M126.195 33.3037V36.9376H125.826V34.0298L124.399 36.474H124.218L122.791 34.0451V36.9365H122.422V33.3026H122.739L124.317 35.9972L125.88 33.3026H126.195V33.3037Z" fill="#39383D"/>
<path d="M127.988 36.7266C127.696 36.5659 127.468 36.345 127.303 36.065C127.139 35.7851 127.057 35.4701 127.057 35.1202C127.057 34.7713 127.139 34.4553 127.303 34.1753C127.467 33.8954 127.695 33.6745 127.988 33.5137C128.28 33.353 128.607 33.272 128.967 33.272C129.327 33.272 129.652 33.3519 129.94 33.5104C130.229 33.6701 130.457 33.8899 130.623 34.1721C130.789 34.4542 130.872 34.7702 130.872 35.1191C130.872 35.469 130.789 35.784 130.623 36.0661C130.457 36.3483 130.229 36.5692 129.94 36.7277C129.652 36.8874 129.327 36.9672 128.967 36.9672C128.606 36.9683 128.28 36.8874 127.988 36.7266ZM129.745 36.4314C129.976 36.3012 130.158 36.1219 130.289 35.8911C130.42 35.6604 130.486 35.4045 130.486 35.1202C130.486 34.8369 130.42 34.58 130.289 34.3492C130.158 34.1196 129.976 33.9391 129.745 33.809C129.513 33.6789 129.254 33.6143 128.966 33.6143C128.678 33.6143 128.418 33.6789 128.185 33.809C127.951 33.9391 127.769 34.1196 127.635 34.3492C127.502 34.58 127.435 34.8369 127.435 35.1202C127.435 35.4045 127.502 35.6604 127.635 35.8911C127.769 36.1219 127.952 36.3012 128.185 36.4314C128.419 36.5615 128.679 36.626 128.966 36.626C129.254 36.626 129.513 36.5604 129.745 36.4314ZM129.34 32.3644H129.833L128.992 33.0085H128.629L129.34 32.3644Z" fill="#39383D"/>
<path d="M134.645 33.3037L133.035 36.9376H132.657L131.048 33.3037H131.464L132.855 36.4598L134.257 33.3037H134.645Z" fill="#39383D"/>
<path d="M137.739 36.6052V36.9376H135.169V33.3037H137.66V33.6362H135.553V34.9288H137.431V35.2557H135.553V36.6052H137.739Z" fill="#39383D"/>
<path d="M138.642 33.3037H139.026V36.9376H138.642V33.3037Z" fill="#39383D"/>
<path d="M140.435 36.8382C140.188 36.7518 139.997 36.6381 139.861 36.4959L140.012 36.1996C140.143 36.3319 140.318 36.4369 140.536 36.5189C140.754 36.5998 140.979 36.6414 141.211 36.6414C141.536 36.6414 141.781 36.5812 141.942 36.462C142.105 36.3428 142.186 36.1876 142.186 35.9973C142.186 35.8518 142.143 35.7359 142.054 35.6495C141.965 35.5631 141.857 35.4964 141.729 35.4494C141.601 35.4035 141.423 35.3521 141.194 35.2963C140.921 35.2274 140.703 35.1607 140.54 35.0962C140.378 35.0316 140.239 34.9343 140.123 34.8031C140.007 34.6708 139.949 34.4936 139.949 34.2683C139.949 34.0846 139.997 33.9184 140.094 33.7675C140.19 33.6166 140.34 33.4963 140.54 33.4066C140.741 33.3169 140.99 33.2721 141.287 33.2721C141.495 33.2721 141.699 33.3005 141.898 33.3574C142.097 33.4154 142.268 33.493 142.414 33.5936L142.284 33.8998C142.132 33.7992 141.969 33.7237 141.796 33.6734C141.623 33.6231 141.454 33.598 141.287 33.598C140.969 33.598 140.73 33.6592 140.569 33.7817C140.408 33.9042 140.327 34.0627 140.327 34.2563C140.327 34.4018 140.371 34.5188 140.46 34.6073C140.548 34.6959 140.659 34.7626 140.792 34.8097C140.925 34.8567 141.105 34.9081 141.329 34.9628C141.596 35.0284 141.811 35.0929 141.975 35.1574C142.139 35.2219 142.279 35.3182 142.393 35.4483C142.507 35.5784 142.565 35.7545 142.565 35.9754C142.565 36.1591 142.515 36.3253 142.417 36.4763C142.319 36.6272 142.167 36.7453 141.963 36.8339C141.759 36.9224 141.508 36.9662 141.211 36.9662C140.942 36.9684 140.683 36.9246 140.435 36.8382Z" fill="#39383D"/>
<path d="M1.92802 25.4933C1.8963 25.4933 1.8624 25.4944 1.82959 25.4955H2.02534C1.99363 25.4944 1.96082 25.4933 1.92802 25.4933ZM3.81224 33.1002V32.2187C3.81224 31.661 3.36059 31.2094 2.80287 31.2094H1.92255L1.91161 31.1984L1.90068 31.2094H0.0109863V36.9025H25.6158C26.1736 36.9025 26.6252 36.4509 26.6252 35.8931V34.1095C26.6252 33.5518 26.1736 33.1002 25.6158 33.1002H3.81224ZM24.6754 29.2978C24.6918 29.2989 24.7071 29.2989 24.7235 29.2989C24.7399 29.2989 24.7574 29.2989 24.7727 29.2978H24.6754ZM1.8799 29.2978C1.8963 29.2989 1.91161 29.2989 1.92802 29.2989C1.94442 29.2989 1.96192 29.2989 1.97723 29.2978H1.8799Z" fill="url(#paint0_linear_12_541)"/>
<path d="M26.6264 13.1721V27.4453C26.6012 28.4569 25.7865 29.2727 24.7738 29.2979H0.0361835L9.54359e-05 26.518C-0.00755956 25.9559 0.446272 25.4955 1.00946 25.4955H22.824V14.0819L20.9299 12.1878L13.3263 4.58425L5.72166 12.1878L3.81228 14.0972V23.6113H0.011031V13.2136C0.0307152 12.832 0.161944 12.4787 0.376284 12.1889C0.413465 12.1364 0.452834 12.0872 0.495483 12.0402L0.640928 11.8948L3.81338 8.72232L10.6383 1.89734L11.9156 0.621148C11.9255 0.610212 11.9364 0.60037 11.9474 0.589434L12.0119 0.524914C12.0228 0.513979 12.0327 0.503043 12.0436 0.493201C12.3826 0.187001 12.831 0 13.3242 0C13.8163 0 14.2657 0.187001 14.6047 0.493201C14.6157 0.504136 14.6266 0.513979 14.6386 0.524914L14.7032 0.589434C14.713 0.60037 14.7239 0.610212 14.7338 0.621148L16.0132 1.89844L22.824 8.7092L26.0085 11.8948C26.0194 11.9057 26.0304 11.9155 26.0424 11.9265L26.1069 11.991C26.1178 12.0019 26.1277 12.0118 26.1375 12.0227C26.1846 12.0752 26.2294 12.131 26.2698 12.1878C26.4733 12.4678 26.6023 12.8068 26.6264 13.1721Z" fill="url(#paint1_linear_12_541)"/>
<defs>
<linearGradient id="paint0_linear_12_541" x1="0.0117409" y1="31.1977" x2="26.6258" y2="31.1977" gradientUnits="userSpaceOnUse">
<stop stop-color="#2A356A"/>
<stop offset="0.2215" stop-color="#29366E"/>
<stop offset="0.4222" stop-color="#273A79"/>
<stop offset="0.6148" stop-color="#24408B"/>
<stop offset="0.8024" stop-color="#1F49A5"/>
<stop offset="0.9849" stop-color="#1A54C6"/>
<stop offset="0.9993" stop-color="#1955C9"/>
</linearGradient>
<linearGradient id="paint1_linear_12_541" x1="0.000226664" y1="14.6474" x2="26.6258" y2="14.6474" gradientUnits="userSpaceOnUse">
<stop stop-color="#2A356A"/>
<stop offset="0.2215" stop-color="#29366E"/>
<stop offset="0.4222" stop-color="#273A79"/>
<stop offset="0.6148" stop-color="#24408B"/>
<stop offset="0.8024" stop-color="#1F49A5"/>
<stop offset="0.9849" stop-color="#1A54C6"/>
<stop offset="0.9993" stop-color="#1955C9"/>
</linearGradient>
</defs>
</svg>
