<svg width="18" height="18" viewBox="0 0 18 18" fill="none" xmlns="http://www.w3.org/2000/svg">
<path d="M13.6 6.41793e-05H8.26667C7.51111 6.41793e-05 6.82222 0.177842 6.2 0.533398C5.57778 0.888953 5.07778 1.38895 4.7 2.0334C4.32222 2.67784 4.13333 3.37784 4.13333 4.1334H2.93333C2.13333 4.1334 1.44444 4.42229 0.866667 5.00006C0.288889 5.57784 0 6.26673 0 7.06673V8.86673C0 9.04451 0.0555556 9.18895 0.166667 9.30006C0.277778 9.41118 0.422222 9.46673 0.6 9.46673H8.86667C9.04444 9.46673 9.18889 9.41118 9.3 9.30006C9.41111 9.18895 9.46667 9.04451 9.46667 8.86673V7.06673C9.46667 6.26673 9.17778 5.57784 8.6 5.00006C8.02222 4.42229 7.33333 4.1334 6.53333 4.1334H5.33333C5.33333 3.3334 5.62222 2.64451 6.2 2.06673C6.77778 1.48895 7.46667 1.17784 8.26667 1.1334H13.6C14.4 1.17784 15.0889 1.48895 15.6667 2.06673C16.2444 2.64451 16.5556 3.3334 16.6 4.1334V17.1334H17.7333V4.1334C17.7333 3.37784 17.5556 2.67784 17.2 2.0334C16.8444 1.38895 16.3444 0.888953 15.7 0.533398C15.0556 0.177842 14.3556 6.41793e-05 13.6 6.41793e-05ZM6.46667 5.3334C6.95556 5.3334 7.37778 5.50006 7.73333 5.8334C8.08889 6.16673 8.26667 6.57784 8.26667 7.06673V8.26673H1.13333V7.06673C1.13333 6.57784 1.31111 6.16673 1.66667 5.8334C2.02222 5.50006 2.44444 5.3334 2.93333 5.3334H6.46667ZM0.6 11.2667H1.73333V15.4001H0.6V11.2667ZM2.93333 11.2667H4.13333V13.0001H2.93333V11.2667ZM2.93333 14.8001H4.13333V17.1334H2.93333V14.8001ZM5.33333 11.2667H6.46667V14.2001H5.33333V11.2667ZM5.33333 15.4001H6.46667V16.5334H5.33333V15.4001ZM7.66667 11.2667H8.86667V13.0001H7.66667V11.2667ZM7.66667 14.2001H8.86667V17.7334H7.66667V14.2001Z" fill="#181A20"/>
</svg>
