<svg width="18" height="18" viewBox="0 0 18 18" fill="none" xmlns="http://www.w3.org/2000/svg">
<path d="M17.2634 10.1642L17.1301 10.0877V3.43899C17.1301 2.52192 16.8413 1.71949 16.2636 1.03168C15.6859 0.343883 14.9972 -1.8239e-05 14.1973 -1.8239e-05H3.53267C2.73282 -1.8239e-05 2.04406 0.343883 1.46639 1.03168C0.888722 1.71949 0.599887 2.52192 0.599887 3.43899V10.0877L0.533233 10.1642C0.177744 10.5717 0 11.0558 0 11.6162V17.0422C0 17.195 0.0555451 17.3479 0.166635 17.5007C0.277726 17.6536 0.422143 17.73 0.599887 17.73H3.53267C3.75485 17.73 3.91038 17.6281 3.99925 17.4243L5.06571 15.6666H12.7309L13.7308 17.4243C13.8196 17.6281 13.9751 17.73 14.1973 17.73H17.1968C17.3301 17.73 17.4523 17.6536 17.5634 17.5007C17.6745 17.3479 17.73 17.195 17.73 17.0422V11.6162C17.73 11.0558 17.5745 10.5717 17.2634 10.1642ZM3.53267 1.37559H14.1973C14.6861 1.37559 15.1083 1.57938 15.4638 1.98696C15.8192 2.39455 15.997 2.87856 15.997 3.43899V7.48938C15.7304 7.08179 15.386 6.75063 14.9639 6.49589C14.5417 6.24115 14.0862 6.13925 13.5974 6.1902H4.13256C3.28827 6.13925 2.59951 6.44494 2.06628 7.10727L1.73301 7.5658V3.43899C1.73301 2.87856 1.91075 2.39455 2.26624 1.98696C2.62173 1.57938 3.04387 1.37559 3.53267 1.37559ZM15.3971 9.55278H2.33289C2.33289 8.99235 2.51064 8.50834 2.86613 8.10076C3.22162 7.69317 3.64376 7.48938 4.13256 7.48938H13.5974C14.0862 7.48938 14.5084 7.69317 14.8639 8.10076C15.2194 8.50834 15.3971 8.99235 15.3971 9.55278ZM16.5969 16.3544H14.5306L13.5308 14.5967C13.3975 14.3929 13.2197 14.291 12.9976 14.291H4.73244C4.51026 14.291 4.33252 14.3929 4.19921 14.5967L3.1994 16.3544H1.13312V11.6162C1.13312 11.4124 1.19977 11.2468 1.33308 11.1194C1.46639 10.9921 1.5997 10.9284 1.73301 10.9284H15.997C16.1303 10.9284 16.2636 10.9921 16.3969 11.1194C16.5302 11.2468 16.5969 11.4124 16.5969 11.6162V16.3544Z" fill="#181A20"/>
</svg>
