<svg width="18" height="18" viewBox="0 0 18 18" fill="none" xmlns="http://www.w3.org/2000/svg">
<path d="M9.2 0.103262C8.97778 -0.0344468 8.75556 -0.0344468 8.53333 0.103262L0 5.81817L0.6 6.85099L8.86667 1.27379L17.1333 6.85099L17.7333 5.81817L9.2 0.103262ZM14.6 15.9398C14.6 16.0775 14.5444 16.2037 14.4333 16.3185C14.3222 16.4332 14.1778 16.4906 14 16.4906H13.4667V11.1888C13.4667 10.6839 13.3 10.2593 12.9667 9.91501C12.6333 9.57074 12.2222 9.3986 11.7333 9.3986H6C5.51111 9.3986 5.1 9.57074 4.76667 9.91501C4.43333 10.2593 4.26667 10.6839 4.26667 11.1888V16.4906H3.73333C3.6 16.4906 3.47778 16.4332 3.36667 16.3185C3.25556 16.2037 3.2 16.0775 3.2 15.9398V7.19526H2V15.9398C2 16.4447 2.16667 16.8693 2.5 17.2136C2.83333 17.5578 3.24444 17.73 3.73333 17.73H14C14.4889 17.73 14.9 17.5464 15.2333 17.1791C15.5667 16.8119 15.7333 16.3988 15.7333 15.9398V7.19526H14.6V15.9398ZM12.2667 14.1496H5.46667V12.979H12.3333L12.2667 14.1496ZM6 10.638H11.7333C11.8667 10.638 11.9889 10.6954 12.1 10.8101C12.2111 10.9249 12.2667 11.0511 12.2667 11.1888V11.7397H5.46667V11.1888C5.42222 11.0511 5.46667 10.9249 5.6 10.8101C5.73333 10.6954 5.86667 10.638 6 10.638ZM5.46667 15.3201H12.3333V16.4906H5.46667V15.3201Z" fill="#181A20"/>
</svg>
